HIERARCHY
ROOT Hips
{
	OFFSET 0.00000 0.00000 0.00000
	CHANNELS 6 Xposition Yposition Zposition Zrotation Yrotation Xrotation 
	JOINT LHipJoint
	{
		OFFSET 0 0 0
		CHANNELS 3 Zrotation Yrotation Xrotation
		JOINT LeftHip
		{
			OFFSET 1.57358 -1.76629 0.73362
			CHANNELS 3 Zrotation Yrotation Xrotation
			JOINT LeftKnee
			{
				OFFSET 2.40600 -6.61045 0.00000
				CHANNELS 3 Zrotation Yrotation Xrotation
				JOINT LeftAnkle
				{
					OFFSET 2.66168 -7.31291 0.00000
					CHANNELS 3 Zrotation Yrotation Xrotation
					JOINT LeftToe
					{
						OFFSET 0.20870 -0.57341 2.12506
						CHANNELS 3 Zrotation Yrotation Xrotation
						End Site
						{
							OFFSET 0.00000 -0.00000 1.10557
						}
					}
				}
			}
		}
	}
	JOINT RHipJoint
	{
		OFFSET 0 0 0
		CHANNELS 3 Zrotation Yrotation Xrotation
		JOINT RightHip
		{
			OFFSET -1.49299 -1.76629 0.73362
			CHANNELS 3 Zrotation Yrotation Xrotation
			JOINT RightKnee
			{
				OFFSET -2.43663 -6.69460 0.00000
				CHANNELS 3 Zrotation Yrotation Xrotation
				JOINT RightAnkle
				{
					OFFSET -2.62959 -7.22474 0.00000
					CHANNELS 3 Zrotation Yrotation Xrotation
					JOINT RightToe
					{
						OFFSET -0.25784 -0.70841 2.21862
						CHANNELS 3 Zrotation Yrotation Xrotation
						End Site
						{
							OFFSET -0.00000 -0.00000 1.16452
						}
					}
				}
			}
		}
	}
	JOINT lowerback
	{
		OFFSET 0 0 0
		CHANNELS 3 Zrotation Yrotation Xrotation
		JOINT Chest
		{
			OFFSET -0.00034 2.12399 -0.25450
			CHANNELS 3 Zrotation Yrotation Xrotation
			JOINT Chest2
			{
				OFFSET 0.05594 2.14379 -0.03318
				CHANNELS 3 Zrotation Yrotation Xrotation
				JOINT lowerneck
				{
					OFFSET 0 0 0
					CHANNELS 3 Zrotation Yrotation Xrotation
					JOINT Neck
					{
						OFFSET -0.09835 1.62725 0.24211
						CHANNELS 3 Zrotation Yrotation Xrotation
						JOINT Head
						{
							OFFSET 0.10849 1.66041 -0.22648
							CHANNELS 3 Zrotation Yrotation Xrotation
							End Site
							{
								OFFSET 0.04385 1.68267 -0.10541
							}
						}
					}
				}
				JOINT LeftCollar
				{
					OFFSET 0 0 0
					CHANNELS 3 Zrotation Yrotation Xrotation
					JOINT LeftShoulder
					{
						OFFSET 3.29108 0.79398 -0.68179
CHANNELS 3 Zrotation Xrotation Yrotation
						JOINT LeftElbow
						{
OFFSET 0 -5.153100 -0.000000
CHANNELS 3 Zrotation Xrotation Yrotation
							JOINT LeftWrist
							{
OFFSET 0 -3.751380 -0.000000
CHANNELS 3 Zrotation Xrotation Yrotation
								JOINT lhand
								{
									OFFSET 0 0 0
CHANNELS 3 Zrotation Xrotation Yrotation
									JOINT LFingers
									{
OFFSET 0 -0.529170 0.000000
CHANNELS 3 Zrotation Xrotation Yrotation
										End Site
										{
OFFSET 0 -0.426630 0.000000
										}
									}
								}
								JOINT LThumb
								{
OFFSET 0 0.000000 0.000000
CHANNELS 3 Zrotation Xrotation Yrotation
									End Site
									{
OFFSET 0 -0.433150 0.433150
									}
								}
							}
						}
					}
				}
				JOINT RightCollar
				{
					OFFSET 0 0 0
					CHANNELS 3 Zrotation Yrotation Xrotation
					JOINT RightShoulder
					{
						OFFSET -3.07414 1.06285 -0.44338
CHANNELS 3 Zrotation Xrotation Yrotation
						JOINT RightElbow
						{
OFFSET 0 -5.296130 0.000000
CHANNELS 3 Zrotation Xrotation Yrotation
							JOINT RightWrist
							{
OFFSET 0 -3.761440 -0.000000
CHANNELS 3 Zrotation Xrotation Yrotation
								JOINT rhand
								{
									OFFSET 0 0 0
CHANNELS 3 Zrotation Xrotation Yrotation
									JOINT RFingers
									{
OFFSET 0 -0.747320 0.000000
CHANNELS 3 Zrotation Xrotation Yrotation
										End Site
										{
OFFSET 0 -0.602510 0.000000
										}
									}
								}
								JOINT RThumb
								{
OFFSET 0 0.000000 0.000000
CHANNELS 3 Zrotation Xrotation Yrotation
									End Site
									{
OFFSET 0 -0.611710 0.611710
									}
								}
							}
						}
					}
				}
			}
		}
	}
}
MOTION
Frames: 6
Frame Time: 0.008333333333333333
0.889400 17.810900 -14.598500 -0.394700 -2.809200 5.275600 0.000000 0.000000 0.000000 -19.149700 -7.600600 -3.223700 0.888200 6.007300 16.805600 0.512000 3.685100 -15.366600 0.014600 -0.780900 -2.146000 0.000000 0.000000 0.000000 20.909500 8.397400 -3.352900 -0.895700 -6.031900 16.877000 -0.392100 -3.593300 -13.701100 -0.067800 -1.679400 4.620500 -1.523500 -0.675200 0.204700 3.011400 -0.837000 -4.027300 4.005800 -0.304700 -4.204400 -10.964800 -4.206800 -14.833000 5.298000 -4.567400 26.258000 3.153000 -2.534800 11.383700 -0.000000 -0.000000 0.000000 -4.728300 2.823400 -22.140100 12.278700 -20.221300 2.197700 14.644600 20.328400 -25.857800 0.000000 0.000000 0.000000 -7.125000 0.000000 0.000000 -16.384900 55.828800 4.438700 -0.000000 -0.000000 0.000000 -1.753200 4.940200 19.029000 -15.053900 -24.221100 -3.248000 -5.841400 11.621700 -8.343300 0.000000 0.000000 0.000000 7.125000 0.000000 -0.000000 15.118800 21.686900 8.764700
0.888486 17.811603 -14.600609 -0.343041 -2.846942 5.267798 0.000000 0.000000 0.000000 -19.209512 -7.584294 -3.215828 0.887146 6.003786 16.795479 0.506096 3.735845 -15.325133 0.013967 -0.764032 -2.099683 0.000000 0.000000 0.000000 20.848494 8.411738 -3.386285 -0.900760 -6.048487 16.925215 -0.396528 -3.543258 -13.730197 -0.068643 -1.690013 4.649738 -1.601796 -0.667609 0.244973 3.002193 -0.829128 -4.036788 4.041223 -0.297461 -4.237082 -10.926284 -4.201529 -14.829416 5.253018 -4.557982 26.257789 3.131071 -2.532199 11.379834 0.000000 0.000000 0.000000 -4.736383 2.811803 -22.103834 12.277646 -20.219683 2.197278 14.528421 20.238437 -25.856183 0.000000 0.000000 0.000000 -7.125000 0.000000 0.000000 -16.501923 55.803990 4.461613 0.000000 0.000000 0.000000 -1.764164 4.975412 19.124164 -15.090799 -24.272407 -3.263181 -5.880126 11.524779 -8.413865 0.000000 0.000000 0.000000 7.125000 0.000000 0.000000 15.084923 21.617530 8.768355
0.888262 17.810602 -14.601743 -0.323269 -2.896490 5.228801 0.000000 0.000000 0.000000 -19.241210 -7.555250 -3.201101 0.891730 6.018933 16.839394 0.506643 3.760099 -15.347721 0.012848 -0.732073 -2.011865 0.000000 0.000000 0.000000 20.826960 8.407415 -3.358129 -0.900750 -6.048482 16.925235 -0.397305 -3.510822 -13.719539 -0.066039 -1.657178 4.559139 -1.612628 -0.647402 0.267395 2.977043 -0.803650 -4.009522 4.020054 -0.285394 -4.223517 -10.899371 -4.201612 -14.840679 5.257286 -4.564953 26.247720 3.126830 -2.531790 11.378038 0.000000 0.000000 0.000000 -4.695946 2.755460 -22.109839 12.254726 -20.185532 2.189392 14.496663 20.190948 -25.739395 0.000000 0.000000 0.000000 -7.125000 0.000000 0.000000 -16.469494 55.684860 4.404729 0.000000 0.000000 0.000000 -1.726042 4.963566 19.138558 -15.115933 -24.307366 -3.273535 -5.846318 11.491751 -8.352058 0.000000 0.000000 0.000000 7.125000 0.000000 0.000000 15.114656 21.678138 8.765113
0.888652 17.807973 -14.601926 -0.329794 -2.942293 5.173429 0.000000 0.000000 0.000000 -19.247475 -7.523364 -3.190976 0.899784 6.045503 16.916402 0.510449 3.768139 -15.400879 0.012490 -0.718683 -1.975099 0.000000 0.000000 0.000000 20.838213 8.380198 -3.293748 -0.897622 -6.038287 16.895660 -0.395385 -3.498738 -13.684359 -0.059009 -1.563185 4.299959 -1.570494 -0.620851 0.274009 2.942677 -0.768921 -3.959186 3.958169 -0.271592 -4.178246 -10.881402 -4.207051 -14.866866 5.295675 -4.584852 26.231917 3.134721 -2.533646 11.379211 0.000000 0.000000 0.000000 -4.625178 2.672048 -22.148674 12.218935 -20.132214 2.177102 14.533874 20.177925 -25.552914 0.000000 0.000000 0.000000 -7.125000 0.000000 0.000000 -16.328654 55.512168 4.296132 0.000000 0.000000 0.000000 -1.655077 4.917097 19.089132 -15.129227 -24.325856 -3.279018 -5.768405 11.505245 -8.195717 0.000000 0.000000 0.000000 7.125000 0.000000 0.000000 15.184420 21.831397 8.753575
0.889636 17.803264 -14.600802 -0.352426 -2.920224 5.153539 0.000000 0.000000 0.000000 -19.227233 -7.527019 -3.233568 0.904212 6.059770 16.957870 0.506232 3.793652 -15.364472 0.018253 -0.867544 -2.384432 0.000000 0.000000 0.000000 20.870684 8.302464 -3.277863 -0.897762 -6.038849 16.897347 -0.393347 -3.527484 -13.674379 -0.041578 -1.308547 3.598246 -1.508926 -0.610167 0.265645 2.921803 -0.754162 -3.929948 3.900326 -0.267656 -4.144861 -10.865869 -4.220335 -14.915221 5.323367 -4.609803 26.224256 3.138094 -2.539129 11.388348 0.000000 0.000000 0.000000 -4.582938 2.619898 -22.197732 12.200380 -20.104452 2.170636 14.610132 20.183266 -25.446786 0.000000 0.000000 0.000000 -7.125000 0.000000 0.000000 -16.193639 55.424524 4.224442 0.000000 0.000000 0.000000 -1.601169 4.869796 19.014210 -15.124870 -24.319741 -3.277190 -5.739940 11.517193 -8.052690 0.000000 0.000000 0.000000 7.125000 0.000000 0.000000 15.218226 21.970629 8.724267
0.889540 17.798298 -14.599626 -0.390483 -2.885248 5.157764 0.000000 0.000000 0.000000 -19.181950 -7.573094 -3.312359 0.909256 6.076198 17.005662 0.500884 3.857781 -15.338760 0.027924 -1.067516 -2.934704 0.000000 0.000000 0.000000 20.926500 8.281446 -3.265476 -0.896669 -6.035298 16.886951 -0.388789 -3.598857 -13.657354 -0.029701 -1.104968 3.037729 -1.459800 -0.608843 0.279700 2.921393 -0.750971 -3.939994 3.872357 -0.267371 -4.164026 -10.868282 -4.235983 -14.958126 5.352653 -4.635576 26.245184 3.145530 -2.547182 11.408077 0.000000 0.000000 0.000000 -4.578696 2.651252 -22.218459 12.207586 -20.115202 2.173116 14.695131 20.212621 -25.331145 0.000000 0.000000 0.000000 -7.125000 0.000000 0.000000 -16.045255 55.329168 4.146788 0.000000 0.000000 0.000000 -1.575953 4.870160 18.963711 -15.102772 -24.288997 -3.268113 -5.771224 11.554902 -8.107317 0.000000 0.000000 0.000000 7.125000 0.000000 0.000000 15.190844 21.917091 8.726632
